<?xml version="1.0" encoding="UTF-8"?>
<!DOCTYPE svg PUBLIC "-//W3C//DTD SVG 1.1//EN" "http://www.w3.org/Graphics/SVG/1.1/DTD/svg11.dtd">
<svg xmlns="http://www.w3.org/2000/svg" version="1.1" width="145px" height="112px" style="shape-rendering:geometricPrecision; text-rendering:geometricPrecision; image-rendering:optimizeQuality; fill-rule:evenodd; clip-rule:evenodd" xmlns:xlink="http://www.w3.org/1999/xlink">
<g><path style="opacity:1" fill="#f9f9f9" d="M -0.5,-0.5 C 47.8333,-0.5 96.1667,-0.5 144.5,-0.5C 144.5,36.8333 144.5,74.1667 144.5,111.5C 96.1667,111.5 47.8333,111.5 -0.5,111.5C -0.5,74.1667 -0.5,36.8333 -0.5,-0.5 Z"/></g>
<g><path style="opacity:1" fill="#171717" d="M 75.5,31.5 C 74.962,33.1172 74.6287,34.7839 74.5,36.5C 76.7354,36.7947 78.7354,36.4614 80.5,35.5C 80.7179,25.4176 80.0512,15.4176 78.5,5.5C 80.2881,2.89251 81.6215,3.22584 82.5,6.5C 82.5,6.83333 82.5,7.16667 82.5,7.5C 83.0965,9.39796 83.0965,11.0646 82.5,12.5C 81.9569,12.56 81.6236,12.8933 81.5,13.5C 82.4495,20.7879 83.1162,28.1212 83.5,35.5C 86.8333,35.5 90.1667,35.5 93.5,35.5C 94.3537,19.6474 95.3537,19.6474 96.5,35.5C 99.5,35.5 102.5,35.5 105.5,35.5C 106.081,28.9386 105.248,22.6053 103,16.5C 100.091,13.6061 96.5913,12.7728 92.5,14C 90.8043,15.1764 89.1376,16.343 87.5,17.5C 87.8925,15.7162 88.5592,14.0495 89.5,12.5C 95.0223,8.17173 100.189,8.50507 105,13.5C 106.382,20.7736 107.216,28.1069 107.5,35.5C 108.552,35.6495 109.552,35.4828 110.5,35C 113.168,28.851 113.835,29.0177 112.5,35.5C 128.057,35.6452 128.057,37.3119 112.5,40.5C 113.667,42.1667 114.833,43.8333 116,45.5C 116.82,47.728 116.487,49.728 115,51.5C 113.202,47.578 111.702,43.578 110.5,39.5C 109.5,39.5 108.5,39.5 107.5,39.5C 107.334,46.175 107.5,52.8417 108,59.5C 108.582,63.251 110.749,64.9176 114.5,64.5C 113.81,60.5104 113.643,56.5104 114,52.5C 117.232,57.5315 117.232,62.5315 114,67.5C 111.119,69.0283 108.786,68.3616 107,65.5C 106.5,56.8397 106.334,48.1731 106.5,39.5C 103.167,39.5 99.8333,39.5 96.5,39.5C 96.5,49.1667 96.5,58.8333 96.5,68.5C 97.8333,68.5 99.1667,68.5 100.5,68.5C 98.7703,69.3786 97.437,70.712 96.5,72.5C 97.1393,75.4748 97.6393,78.4748 98,81.5C 98.4186,82.6721 99.0853,83.6721 100,84.5C 99.5783,81.9023 99.5783,79.2356 100,76.5C 100.377,75.0577 101.21,74.0577 102.5,73.5C 101.563,82.0509 105.23,86.2176 113.5,86C 116.418,84.2912 119.252,82.4579 122,80.5C 120.712,84.1388 118.212,86.9722 114.5,89C 104.083,93.5688 97.5835,90.4022 95,79.5C 93.9986,82.1732 92.4986,84.5065 90.5,86.5C 92.583,87.9587 94.7497,89.2921 97,90.5C 97.4244,96.7627 94.5911,100.929 88.5,103C 81.4799,106.257 74.1466,107.591 66.5,107C 63.0268,105.192 60.1934,102.692 58,99.5C 47.1889,103.508 40.0223,100.174 36.5,89.5C 36.3433,88.1266 36.51,86.7932 37,85.5C 37.9643,89.4685 40.1309,92.6351 43.5,95C 48.5,95.6667 53.5,95.6667 58.5,95C 59.2266,93.6012 59.7266,92.1012 60,90.5C 60.2492,91.624 60.7492,92.624 61.5,93.5C 66.7022,91.6112 71.0355,88.6112 74.5,84.5C 75.3382,84.8417 75.6716,85.5084 75.5,86.5C 74.4566,89.0562 72.7899,91.2228 70.5,93C 67.5,94.8333 64.5,96.6667 61.5,98.5C 62.3128,99.8139 63.3128,100.981 64.5,102C 75.2655,104.481 85.2655,102.647 94.5,96.5C 95.8333,95.5 95.8333,94.5 94.5,93.5C 90.4903,91.8309 86.4903,90.1642 82.5,88.5C 82.8333,87.8333 83.1667,87.1667 83.5,86.5C 91.7962,85.2112 95.1295,80.5445 93.5,72.5C 91.2895,73.1228 89.2895,74.1228 87.5,75.5C 86.8933,75.3764 86.56,75.0431 86.5,74.5C 87.1667,74.5 87.5,74.1667 87.5,73.5C 89.6121,72.4059 91.7787,71.4059 94,70.5C 94.4996,63.8417 94.6663,57.175 94.5,50.5C 94.5,46.8333 94.5,43.1667 94.5,39.5C 90.8333,39.5 87.1667,39.5 83.5,39.5C 83.5,47.1667 83.5,54.8333 83.5,62.5C 83.5,62.8333 83.5,63.1667 83.5,63.5C 82.8333,57.1667 82.1667,50.8333 81.5,44.5C 81.5,43.1667 81.5,41.8333 81.5,40.5C 79.5,40.5 77.5,40.5 75.5,40.5C 75.9057,48.9174 75.4057,57.2508 74,65.5C 72.1326,70.2941 68.6326,71.7941 63.5,70C 62.6634,68.9887 62.33,67.8221 62.5,66.5C 59.2551,66.8801 56.2551,68.0468 53.5,70C 47.2983,71.9681 40.965,73.1348 34.5,73.5C 23.8551,72.2064 20.3551,66.5398 24,56.5C 23.417,61.606 25.2503,65.4393 29.5,68C 41.7832,70.3306 53.1165,68.1639 63.5,61.5C 64.7845,68.1937 67.9512,69.1937 73,64.5C 73.5579,56.4847 73.3912,48.4847 72.5,40.5C 68.4862,40.6655 64.4862,40.4988 60.5,40C 58.522,39.5193 57.1887,38.3527 56.5,36.5C 57.2686,33.1282 58.9352,30.2949 61.5,28C 65.5894,25.8733 69.4228,23.3733 73,20.5C 73.6667,18.8333 73.6667,17.1667 73,15.5C 70.3566,11.7716 69.5233,7.77164 70.5,3.5C 72.5,4.83333 74.1667,6.5 75.5,8.5C 74.8333,9.16667 74.1667,9.83333 73.5,10.5C 76.8213,17.0469 75.488,22.5469 69.5,27C 54.3981,33.4028 55.0648,36.5695 71.5,36.5C 71.0845,32.6249 71.5845,28.9582 73,25.5C 74.122,27.4068 74.9553,29.4068 75.5,31.5 Z"/></g>
<g><path style="opacity:1" fill="#424242" d="M 89.5,10.5 C 88.7784,10.9175 88.2784,11.5842 88,12.5C 87.9928,9.69012 86.8262,7.69012 84.5,6.5C 85.9097,5.17159 87.0764,5.50492 88,7.5C 88.7183,4.76629 90.2183,4.09963 92.5,5.5C 91.675,6.38568 90.675,6.71901 89.5,6.5C 89.5,7.83333 89.5,9.16667 89.5,10.5 Z"/></g>
<g><path style="opacity:1" fill="#212121" d="M 64.5,5.5 C 67.3382,7.30591 67.0048,8.30591 63.5,8.5C 63.628,10.6547 63.128,12.6547 62,14.5C 61.5495,11.8941 60.0495,10.5608 57.5,10.5C 57.5,9.5 57.5,8.5 57.5,7.5C 59.9115,7.13673 61.4115,8.13673 62,10.5C 62.3661,8.54826 63.1995,6.88159 64.5,5.5 Z"/></g>
<g><path style="opacity:1" fill="#818181" d="M 82.5,7.5 C 84.3258,9.45511 84.8258,11.7884 84,14.5C 83.2828,13.9558 82.7828,13.2891 82.5,12.5C 83.0965,11.0646 83.0965,9.39796 82.5,7.5 Z"/></g>
<g><path style="opacity:1" fill="#3a3a3a" d="M 51.5,10.5 C 52.8734,10.3433 54.2068,10.51 55.5,11C 49.5089,13.4117 43.6756,16.245 38,19.5C 37.3123,18.6683 37.479,18.0016 38.5,17.5C 43.0545,15.3924 47.3878,13.0591 51.5,10.5 Z"/></g>
<g><path style="opacity:1" fill="#ededed" d="M 82.5,7.5 C 82.5,7.16667 82.5,6.83333 82.5,6.5C 83.1667,6.5 83.8333,6.5 84.5,6.5C 86.8262,7.69012 87.9928,9.69012 88,12.5C 88.2784,11.5842 88.7784,10.9175 89.5,10.5C 89.5,11.1667 89.5,11.8333 89.5,12.5C 88.5592,14.0495 87.8925,15.7162 87.5,17.5C 89.1376,16.343 90.8043,15.1764 92.5,14C 96.5913,12.7728 100.091,13.6061 103,16.5C 105.248,22.6053 106.081,28.9386 105.5,35.5C 102.5,35.5 99.5,35.5 96.5,35.5C 95.3537,19.6474 94.3537,19.6474 93.5,35.5C 90.1667,35.5 86.8333,35.5 83.5,35.5C 83.1162,28.1212 82.4495,20.7879 81.5,13.5C 81.6236,12.8933 81.9569,12.56 82.5,12.5C 82.7828,13.2891 83.2828,13.9558 84,14.5C 84.8258,11.7884 84.3258,9.45511 82.5,7.5 Z"/></g>
<g><path style="opacity:1" fill="#1f1f1f" d="M 95.5,15.5 C 101.057,18.1963 102.89,22.5297 101,28.5C 100.634,24.7683 98.9678,21.7683 96,19.5C 95.51,18.2068 95.3433,16.8734 95.5,15.5 Z"/></g>
<g><path style="opacity:1" fill="#292929" d="M 59.5,18.5 C 60.1031,20.1897 61.1031,21.6897 62.5,23C 61.9747,23.6924 61.3081,24.1924 60.5,24.5C 59.5344,22.604 59.2011,20.604 59.5,18.5 Z"/></g>
<g><path style="opacity:1" fill="#8a8a8a" d="M 87.5,17.5 C 86.7828,19.9366 85.7828,22.2699 84.5,24.5C 84.0398,21.7314 85.0398,19.3981 87.5,17.5 Z"/></g>
<g><path style="opacity:1" fill="#9c9c9c" d="M 109.5,19.5 C 110.088,21.9071 111.088,24.2404 112.5,26.5C 109.926,29.2178 108.593,28.5511 108.5,24.5C 108.728,22.7927 109.062,21.126 109.5,19.5 Z"/></g>
<g><path style="opacity:1" fill="#151515" d="M 86.5,25.5 C 91.5747,26.6398 92.408,28.9732 89,32.5C 84.6685,31.0946 83.8352,28.7613 86.5,25.5 Z"/></g>
<g><path style="opacity:1" fill="#a7a7a7" d="M 117.5,29.5 C 118.833,29.8333 120.167,30.1667 121.5,30.5C 121.213,32.1207 120.213,33.1207 118.5,33.5C 116.466,32.4261 116.133,31.0927 117.5,29.5 Z"/></g>
<g><path style="opacity:1" fill="#434343" d="M 117.5,29.5 C 119.128,28.1472 120.462,28.4805 121.5,30.5C 120.167,30.1667 118.833,29.8333 117.5,29.5 Z"/></g>
<g><path style="opacity:1" fill="#999999" d="M 75.5,31.5 C 76.4345,32.5676 76.7678,33.901 76.5,35.5C 77.8333,35.5 79.1667,35.5 80.5,35.5C 78.7354,36.4614 76.7354,36.7947 74.5,36.5C 74.6287,34.7839 74.962,33.1172 75.5,31.5 Z"/></g>
<g><path style="opacity:1" fill="#999999" d="M 94.5,50.5 C 93.5206,47.3752 93.1872,44.0419 93.5,40.5C 90.5,40.5 87.5,40.5 84.5,40.5C 84.825,48.0191 84.4916,55.3524 83.5,62.5C 83.5,54.8333 83.5,47.1667 83.5,39.5C 87.1667,39.5 90.8333,39.5 94.5,39.5C 94.5,43.1667 94.5,46.8333 94.5,50.5 Z"/></g>
<g><path style="opacity:1" fill="#1b1b1b" d="M 34.5,52.5 C 36.2215,58.1917 39.8881,59.8584 45.5,57.5C 46.2739,58.1471 47.2739,58.4805 48.5,58.5C 55.5718,58.1991 61.9051,56.0325 67.5,52C 64.9925,47.8587 61.3258,46.5254 56.5,48C 53.2896,50.7167 49.9563,53.2167 46.5,55.5C 47.8719,50.3562 49.7052,45.3562 52,40.5C 52.6667,36.1667 52.6667,31.8333 52,27.5C 48.4792,22.6235 44.6458,22.2902 40.5,26.5C 41.8073,18.7793 45.8073,16.446 52.5,19.5C 54.5959,22.2891 55.5959,25.4557 55.5,29C 55.4403,35.9345 53.7736,42.4345 50.5,48.5C 50.8333,48.8333 51.1667,49.1667 51.5,49.5C 55.8492,44.2827 61.1826,43.116 67.5,46C 70.2274,51.1542 68.894,55.1542 63.5,58C 55.1573,61.5877 46.4907,62.9211 37.5,62C 33.4259,58.4574 31.2593,53.9574 31,48.5C 30.0399,40.9988 30.3732,33.6654 32,26.5C 33.0776,35.2689 33.9109,43.9356 34.5,52.5 Z"/></g>
<g><path style="opacity:1" fill="#181818" d="M 39.5,29.5 C 40.7117,31.9066 42.2117,34.24 44,36.5C 45.1488,39.3926 45.6488,42.3926 45.5,45.5C 44.8333,45.1667 44.1667,44.8333 43.5,44.5C 42.6743,41.5152 41.341,38.8485 39.5,36.5C 38.1667,34.1667 38.1667,31.8333 39.5,29.5 Z"/></g>
<g><path style="opacity:1" fill="#ececec" d="M 46.5,55.5 C 45.6618,55.8417 45.3284,56.5084 45.5,57.5C 39.8881,59.8584 36.2215,58.1917 34.5,52.5C 34.9449,46.9036 36.6116,41.5703 39.5,36.5C 41.341,38.8485 42.6743,41.5152 43.5,44.5C 43.4536,48.1881 42.6203,51.5214 41,54.5C 43.5469,52.0273 45.0469,49.0273 45.5,45.5C 45.6488,42.3926 45.1488,39.3926 44,36.5C 42.2117,34.24 40.7117,31.9066 39.5,29.5C 39.2627,28.209 39.596,27.209 40.5,26.5C 44.6458,22.2902 48.4792,22.6235 52,27.5C 52.6667,31.8333 52.6667,36.1667 52,40.5C 49.7052,45.3562 47.8719,50.3562 46.5,55.5 Z"/></g>
<g><path style="opacity:1" fill="#222222" d="M 120.5,43.5 C 122.288,43.2148 123.955,43.5481 125.5,44.5C 125.192,45.3081 124.692,45.9747 124,46.5C 122.271,46.0257 121.105,45.0257 120.5,43.5 Z"/></g>
<g><path style="opacity:1" fill="#6c6c6c" d="M 43.5,44.5 C 44.1667,44.8333 44.8333,45.1667 45.5,45.5C 45.0469,49.0273 43.5469,52.0273 41,54.5C 42.6203,51.5214 43.4536,48.1881 43.5,44.5 Z"/></g>
<g><path style="opacity:1" fill="#9d9d9d" d="M 25.5,50.5 C 25.1667,50.5 24.8333,50.5 24.5,50.5C 23.8475,46.7506 24.6808,43.084 27,39.5C 26.4267,43.0912 25.9267,46.7579 25.5,50.5 Z"/></g>
<g><path style="opacity:1" fill="#e5e5e5" d="M 45.5,57.5 C 45.3284,56.5084 45.6618,55.8417 46.5,55.5C 49.9563,53.2167 53.2896,50.7167 56.5,48C 61.3258,46.5254 64.9925,47.8587 67.5,52C 61.9051,56.0325 55.5718,58.1991 48.5,58.5C 47.2739,58.4805 46.2739,58.1471 45.5,57.5 Z"/></g>
<g><path style="opacity:1" fill="#151515" d="M 24.5,50.5 C 24.8333,50.5 25.1667,50.5 25.5,50.5C 27.6281,51.2805 27.7947,52.2805 26,53.5C 24.9614,52.7562 24.4614,51.7562 24.5,50.5 Z"/></g>
<g><path style="opacity:1" fill="#262626" d="M 36.5,50.5 C 39.7973,50.3287 40.1306,50.9954 37.5,52.5C 36.7025,52.0431 36.3691,51.3764 36.5,50.5 Z"/></g>
<g><path style="opacity:1" fill="#131313" d="M 119.5,53.5 C 124.663,53.8062 125.996,55.9729 123.5,60C 124.868,61.3402 126.201,62.6736 127.5,64C 125.158,68.5446 122.825,68.3779 120.5,63.5C 121.167,62.5 121.833,61.5 122.5,60.5C 119.007,59.0623 118.007,56.729 119.5,53.5 Z"/></g>
<g><path style="opacity:1" fill="#9b9b9b" d="M 100.5,58.5 C 99.6618,58.8417 99.3284,59.5084 99.5,60.5C 98.2355,58.2279 98.4022,55.8945 100,53.5C 100.494,55.1341 100.66,56.8008 100.5,58.5 Z"/></g>
<g><path style="opacity:1" fill="#1c1c1c" d="M 100.5,58.5 C 100.577,59.7498 101.244,60.5831 102.5,61C 101.251,61.7401 100.251,61.5735 99.5,60.5C 99.3284,59.5084 99.6618,58.8417 100.5,58.5 Z"/></g>
<g><path style="opacity:1" fill="#f0f0f0" d="M 81.5,44.5 C 81.3336,52.1739 81.5003,59.8406 82,67.5C 82.7914,66.255 83.2914,64.9217 83.5,63.5C 83.5,63.1667 83.5,62.8333 83.5,62.5C 84.4916,55.3524 84.825,48.0191 84.5,40.5C 87.5,40.5 90.5,40.5 93.5,40.5C 93.1872,44.0419 93.5206,47.3752 94.5,50.5C 94.6663,57.175 94.4996,63.8417 94,70.5C 91.7787,71.4059 89.6121,72.4059 87.5,73.5C 86.6618,73.1583 86.3284,72.4916 86.5,71.5C 86.8841,69.3352 86.2174,67.6685 84.5,66.5C 82.9733,68.1933 81.6399,70.0266 80.5,72C 77.4718,73.1397 75.3051,72.3064 74,69.5C 73.3412,72.8881 73.5078,76.2214 74.5,79.5C 74.5,81.1667 74.5,82.8333 74.5,84.5C 71.0355,88.6112 66.7022,91.6112 61.5,93.5C 60.7492,92.624 60.2492,91.624 60,90.5C 59.7266,92.1012 59.2266,93.6012 58.5,95C 53.5,95.6667 48.5,95.6667 43.5,95C 40.1309,92.6351 37.9643,89.4685 37,85.5C 36.51,86.7932 36.3433,88.1266 36.5,89.5C 35.8333,88.1667 35.1667,86.8333 34.5,85.5C 32.0882,85.3059 31.0882,83.9726 31.5,81.5C 31.722,78.4958 32.722,75.8292 34.5,73.5C 40.965,73.1348 47.2983,71.9681 53.5,70C 56.2551,68.0468 59.2551,66.8801 62.5,66.5C 62.33,67.8221 62.6634,68.9887 63.5,70C 68.6326,71.7941 72.1326,70.2941 74,65.5C 75.4057,57.2508 75.9057,48.9174 75.5,40.5C 77.5,40.5 79.5,40.5 81.5,40.5C 81.5,41.8333 81.5,43.1667 81.5,44.5 Z"/></g>
<g><path style="opacity:1" fill="#656565" d="M 88.5,59.5 C 89.3091,61.2922 89.8091,63.2922 90,65.5C 90.7175,64.5494 91.5509,64.3828 92.5,65C 90.0716,68.4123 88.4049,68.079 87.5,64C 87.7728,62.4672 88.1062,60.9672 88.5,59.5 Z"/></g>
<g><path style="opacity:1" fill="#525252" d="M 81.5,44.5 C 82.1667,50.8333 82.8333,57.1667 83.5,63.5C 83.2914,64.9217 82.7914,66.255 82,67.5C 81.5003,59.8406 81.3336,52.1739 81.5,44.5 Z"/></g>
<g><path style="opacity:1" fill="#8a8a8a" d="M 77.5,52.5 C 78.4033,54.1374 78.4033,55.9707 77.5,58C 77.7549,59.3261 78.4216,60.3261 79.5,61C 79,61.5 78.5,62 78,62.5C 76.23,59.3113 76.0634,55.9779 77.5,52.5 Z"/></g>
<g><path style="opacity:1" fill="#313131" d="M 87.5,43.5 C 88.7899,44.0577 89.6232,45.0577 90,46.5C 90.6667,50.5 90.6667,54.5 90,58.5C 89.8213,53.3602 88.988,48.3602 87.5,43.5 Z"/></g>
<g><path style="opacity:1" fill="#222222" d="M 100.5,68.5 C 101.527,67.1522 102.86,66.6522 104.5,67C 103.437,68.1882 102.103,68.6882 100.5,68.5 Z"/></g>
<g><path style="opacity:1" fill="#151515" d="M 86.5,71.5 C 85.7784,71.9175 85.2784,72.5842 85,73.5C 84.6667,72.5 84.3333,71.5 84,70.5C 82.6233,72.7538 81.1233,74.9205 79.5,77C 78.552,77.4828 77.552,77.6495 76.5,77.5C 76.6621,79.5273 76.4955,81.5273 76,83.5C 75.79,81.9419 75.29,80.6085 74.5,79.5C 73.5078,76.2214 73.3412,72.8881 74,69.5C 75.3051,72.3064 77.4718,73.1397 80.5,72C 81.6399,70.0266 82.9733,68.1933 84.5,66.5C 86.2174,67.6685 86.8841,69.3352 86.5,71.5 Z"/></g>
<g><path style="opacity:1" fill="#1d1d1d" d="M 102.5,73.5 C 104.743,70.2842 107.743,69.6175 111.5,71.5C 114.325,71.8809 116.491,70.8809 118,68.5C 117.74,71.117 116.24,72.9503 113.5,74C 109.779,74.6781 106.112,74.5114 102.5,73.5 Z"/></g>
<g><path style="opacity:1" fill="#c9c9c9" d="M 86.5,71.5 C 86.3284,72.4916 86.6618,73.1583 87.5,73.5C 87.5,74.1667 87.1667,74.5 86.5,74.5C 85.4664,75.6871 84.133,76.5204 82.5,77C 84.0581,77.21 85.3915,77.71 86.5,78.5C 85.7321,79.2625 85.2321,80.2625 85,81.5C 83.9125,79.0684 83.4125,79.4017 83.5,82.5C 83.2172,83.2891 82.7172,83.9558 82,84.5C 80.9274,82.4534 79.7607,80.4534 78.5,78.5C 77.92,81.447 76.92,84.1137 75.5,86.5C 75.6716,85.5084 75.3382,84.8417 74.5,84.5C 74.5,82.8333 74.5,81.1667 74.5,79.5C 75.29,80.6085 75.79,81.9419 76,83.5C 76.4955,81.5273 76.6621,79.5273 76.5,77.5C 77.552,77.6495 78.552,77.4828 79.5,77C 81.1233,74.9205 82.6233,72.7538 84,70.5C 84.3333,71.5 84.6667,72.5 85,73.5C 85.2784,72.5842 85.7784,71.9175 86.5,71.5 Z"/></g>
<g><path style="opacity:1" fill="#1c1c1c" d="M 61.5,74.5 C 63.9288,74.585 65.9288,75.585 67.5,77.5C 65.7026,79.1311 64.5359,81.1311 64,83.5C 63.4592,80.791 61.9592,78.791 59.5,77.5C 60.1925,76.4822 60.8592,75.4822 61.5,74.5 Z"/></g>
<g><path style="opacity:1" fill="#343434" d="M 120.5,76.5 C 120.167,75.5 119.5,74.8333 118.5,74.5C 117.963,71.8604 118.797,71.8604 121,74.5C 121.508,72.0958 122.675,71.4291 124.5,72.5C 122.563,74.0398 121.396,76.0398 121,78.5C 120.536,77.9056 120.369,77.2389 120.5,76.5 Z"/></g>
<g><path style="opacity:1" fill="#151515" d="M 46.5,75.5 C 51.7426,76.9588 52.5759,79.6255 49,83.5C 44.3384,81.8719 43.5051,79.2052 46.5,75.5 Z"/></g>
<g><path style="opacity:1" fill="#f1f1f1" d="M 75.5,86.5 C 76.92,84.1137 77.92,81.447 78.5,78.5C 79.7607,80.4534 80.9274,82.4534 82,84.5C 82.7172,83.9558 83.2172,83.2891 83.5,82.5C 84.1499,82.8039 84.8165,83.1373 85.5,83.5C 86.4519,81.9547 86.7852,80.288 86.5,78.5C 85.3915,77.71 84.0581,77.21 82.5,77C 84.133,76.5204 85.4664,75.6871 86.5,74.5C 86.56,75.0431 86.8933,75.3764 87.5,75.5C 89.2895,74.1228 91.2895,73.1228 93.5,72.5C 95.1295,80.5445 91.7962,85.2112 83.5,86.5C 83.1667,87.1667 82.8333,87.8333 82.5,88.5C 86.4903,90.1642 90.4903,91.8309 94.5,93.5C 95.8333,94.5 95.8333,95.5 94.5,96.5C 85.2655,102.647 75.2655,104.481 64.5,102C 63.3128,100.981 62.3128,99.8139 61.5,98.5C 64.5,96.6667 67.5,94.8333 70.5,93C 72.7899,91.2228 74.4566,89.0562 75.5,86.5 Z"/></g>
<g><path style="opacity:1" fill="#7c7c7c" d="M 118.5,74.5 C 119.5,74.8333 120.167,75.5 120.5,76.5C 117.968,79.0995 114.968,80.5995 111.5,81C 113.001,79.7485 114.668,78.7485 116.5,78C 117.823,77.1841 118.489,76.0174 118.5,74.5 Z"/></g>
<g><path style="opacity:1" fill="#424242" d="M 86.5,78.5 C 86.7852,80.288 86.4519,81.9547 85.5,83.5C 84.8165,83.1373 84.1499,82.8039 83.5,82.5C 83.4125,79.4017 83.9125,79.0684 85,81.5C 85.2321,80.2625 85.7321,79.2625 86.5,78.5 Z"/></g>
<g><path style="opacity:1" fill="#454545" d="M 31.5,81.5 C 31.0882,83.9726 32.0882,85.3059 34.5,85.5C 33.9232,87.6516 32.7565,87.985 31,86.5C 30.2204,84.6131 30.3871,82.9464 31.5,81.5 Z"/></g>
<g><path style="opacity:1" fill="#494949" d="M 57.5,83.5 C 58.552,83.3505 59.552,83.5172 60.5,84C 58.5453,86.0714 56.212,86.7381 53.5,86C 55.0664,85.3918 56.3998,84.5585 57.5,83.5 Z"/></g>
<g><path style="opacity:1" fill="#383838" d="M 48.5,87.5 C 49.552,87.3505 50.552,87.5172 51.5,88C 48.9417,89.6263 46.275,90.6263 43.5,91C 45.2331,89.8111 46.8998,88.6444 48.5,87.5 Z"/></g>
<g><path style="opacity:1" fill="#111111" d="M 77.5,91.5 C 82.4222,92.8133 83.2555,95.1466 80,98.5C 75.5022,97.2211 74.6688,94.8878 77.5,91.5 Z"/></g>
<g><path style="opacity:1" fill="#6b6b6b" d="M 100.5,97.5 C 99.0213,95.0884 99.5213,93.0884 102,91.5C 104.945,93.8737 104.445,95.8737 100.5,97.5 Z"/></g>
<g><path style="opacity:1" fill="#272727" d="M 100.5,97.5 C 100.5,98.5 100.5,99.5 100.5,100.5C 104.172,101.045 103.838,101.378 99.5,101.5C 99.2322,99.901 99.5655,98.5676 100.5,97.5 Z"/></g>
<g><path style="opacity:1" fill="#575757" d="M 90.5,105.5 C 92.2529,103.601 94.2529,102.935 96.5,103.5C 94.8273,105.086 92.8273,105.753 90.5,105.5 Z"/></g>
<g><path style="opacity:1" fill="#494949" d="M 56.5,103.5 C 57.209,102.596 58.209,102.263 59.5,102.5C 60.1546,106.705 58.8212,107.872 55.5,106C 56.624,105.751 57.624,105.251 58.5,104.5C 58.0431,103.702 57.3764,103.369 56.5,103.5 Z"/></g>
<g><path style="opacity:1" fill="#454545" d="M 90.5,105.5 C 87.8121,107.266 84.9788,108.933 82,110.5C 81.3123,109.668 81.479,109.002 82.5,108.5C 84.9793,106.924 87.646,105.924 90.5,105.5 Z"/></g>
</svg>
